<svg width="20" height="20" viewBox="0 0 20 20" fill="none" xmlns="http://www.w3.org/2000/svg">
<path d="M2.92966 20H9.45309V12.8906H7.10934V10.5469H9.45309V7.61719C9.45309 6.00174 10.7673 4.6875 12.3828 4.6875H15.3125V7.03125H12.9687C12.3225 7.03125 11.7968 7.55692 11.7968 8.20312V10.5469H15.2067L14.8161 12.8906H11.7968V20H17.0703C18.6857 20 20 18.6858 20 17.0703V2.92969C20 1.31424 18.6857 0 17.0703 0H2.92966C1.31421 0 -3.05176e-05 1.31424 -3.05176e-05 2.92969V17.0703C-3.05176e-05 18.6858 1.31421 20 2.92966 20ZM1.17184 2.92969C1.17184 1.96045 1.96042 1.17188 2.92966 1.17188H17.0703C18.0395 1.17188 18.8281 1.96045 18.8281 2.92969V17.0703C18.8281 18.0396 18.0395 18.8281 17.0703 18.8281H12.9687V14.0625H15.8088L16.5901 9.375H12.9687V8.20312H16.4843V3.51562H12.3828C10.1211 3.51562 8.28122 5.35553 8.28122 7.61719V9.375H5.93747V14.0625H8.28122V18.8281H2.92966C1.96042 18.8281 1.17184 18.0396 1.17184 17.0703V2.92969Z" fill="white"/>
</svg>
