<svg width="20" height="20" viewBox="0 0 20 20" fill="none" xmlns="http://www.w3.org/2000/svg">
<path d="M2.92966 20H17.0703C18.6857 20 20 18.6858 20 17.0703V2.92969C20 1.31424 18.6857 0 17.0703 0H2.92966C1.31421 0 -3.05176e-05 1.31424 -3.05176e-05 2.92969V17.0703C-3.05176e-05 18.6858 1.31421 20 2.92966 20ZM1.17184 2.92969C1.17184 1.96045 1.96042 1.17188 2.92966 1.17188H17.0703C18.0395 1.17188 18.8281 1.96045 18.8281 2.92969V17.0703C18.8281 18.0396 18.0395 18.8281 17.0703 18.8281H2.92966C1.96042 18.8281 1.17184 18.0396 1.17184 17.0703V2.92969Z" fill="white"/>
<path d="M9.99996 15.2733C12.9077 15.2733 15.2734 12.9076 15.2734 9.99987C15.2734 7.09216 12.9077 4.72644 9.99996 4.72644C7.09225 4.72644 4.72653 7.09216 4.72653 9.99987C4.72653 12.9076 7.09225 15.2733 9.99996 15.2733ZM9.99996 5.89831C12.2616 5.89831 14.1015 7.73822 14.1015 9.99987C14.1015 12.2615 12.2616 14.1014 9.99996 14.1014C7.73831 14.1014 5.89841 12.2615 5.89841 9.99987C5.89841 7.73822 7.73831 5.89831 9.99996 5.89831Z" fill="white"/>
<path d="M15.5264 5.61373C16.4841 5.61373 17.2632 4.83461 17.2632 3.87699C17.2632 2.91938 16.4841 2.14026 15.5264 2.14026C14.5687 2.14026 13.7896 2.91938 13.7896 3.87699C13.7896 4.83461 14.5687 5.61373 15.5264 5.61373ZM15.5264 3.29808C15.8456 3.29808 16.1053 3.55784 16.1053 3.87699C16.1053 4.19615 15.8456 4.4559 15.5264 4.4559C15.2072 4.4559 14.9474 4.19615 14.9474 3.87699C14.9474 3.55784 15.2072 3.29808 15.5264 3.29808Z" fill="white"/>
</svg>
