<svg width="20" height="16" viewBox="0 0 20 16" fill="none" xmlns="http://www.w3.org/2000/svg">
<path d="M20 2.13681C18.7419 2.19348 18.7693 2.18886 18.6271 2.20049L19.3722 0.120645C19.3722 0.120645 17.0465 0.95691 16.4569 1.1065C14.9084 -0.253861 12.6068 -0.313968 10.9613 0.674576C9.61377 1.48429 8.8905 2.87479 9.13174 4.50004C6.50922 4.14432 4.29959 2.92922 2.55505 0.880845L2.0033 0.233102L1.591 0.973167C1.06992 1.90832 0.896881 2.97755 1.10364 3.98384C1.18848 4.39668 1.33267 4.79042 1.53241 5.15911L1.05908 4.97984L1.00293 5.75287C0.946014 6.53812 1.2135 7.45478 1.71857 8.20469C1.86078 8.41588 2.04388 8.6478 2.27597 8.87659L2.03137 8.8399L2.32983 9.72568C2.72214 10.8895 3.53696 11.7899 4.59439 12.2904C3.53833 12.7285 2.68521 13.008 1.28293 13.4588L-3.05176e-05 13.8711L1.18497 14.5043C1.63678 14.7458 3.23331 15.5522 4.81076 15.7942C8.31723 16.3317 12.2651 15.8939 14.9229 13.5543C17.1615 11.5836 17.8961 8.78039 17.7435 5.86324C17.7205 5.42161 17.8442 5.00012 18.092 4.67663C18.5884 4.02888 19.9969 2.14113 20 2.13681ZM17.155 3.99055C16.7434 4.52763 16.5373 5.21355 16.5742 5.9217C16.7282 8.86421 15.9091 11.1462 14.1395 12.7038C12.0724 14.5236 8.73822 15.2378 4.99219 14.6635C4.31378 14.5595 3.61264 14.3267 3.03235 14.0942C4.20804 13.6988 5.11594 13.3464 6.58215 12.668L8.62897 11.7211L6.36914 11.5797C5.28668 11.512 4.38535 10.9992 3.8313 10.1667C4.12549 10.15 4.40915 10.1035 4.69159 10.0265L6.84689 9.43977L4.67358 8.91955C3.61752 8.66674 3.01556 8.04913 2.6965 7.57544C2.487 7.26417 2.35013 6.94529 2.26804 6.65133C2.48593 6.70845 2.73999 6.74917 3.14969 6.78884L5.16125 6.98333L3.56747 5.76808C2.4191 4.89259 1.95889 3.57727 2.29626 2.3128C5.88025 5.94631 10.0883 5.67322 10.5119 5.76927C10.4187 4.88409 10.4162 4.882 10.3918 4.79773C9.84937 2.92341 11.0382 1.9717 11.5744 1.64955C12.6944 0.976747 14.4722 0.875327 15.7036 1.98378C15.9695 2.22302 16.3292 2.31713 16.6658 2.23539C16.9679 2.16201 17.2159 2.08431 17.4586 1.99974L16.9532 3.41037L17.5984 3.41082C17.4766 3.57041 17.3306 3.76146 17.155 3.99055Z" fill="white"/>
</svg>
